<svg xmlns="http://www.w3.org/2000/svg" id="Layer_1" data-name="Layer 1" viewBox="0 0 200 200"><defs><style>.cls-1{fill:#7a69cb}</style></defs><path d="M172.53 10.56h-.06l-.18-.09a8.15 8.15 0 0 0-3.7-.85h-1.54c-17-1-51.31-2.82-67.05-2.82S49.91 8.62 33 9.59h-1.59a8.16 8.16 0 0 0-3.73.86l-.12.06-.12.07a8 8 0 0 0-4.39 7.13v28.8a8.37 8.37 0 0 0 8.36 8.31h35.65v127.83a8 8 0 0 0 1.54 4.83 9.23 9.23 0 0 0 6.56 4.07 208 208 0 0 0 24.84 1.68 208 208 0 0 0 24.84-1.68 9.24 9.24 0 0 0 6.57-4.09 8 8 0 0 0 1.53-4.81V54.82h35.65a8.07 8.07 0 0 0 5.9-2.44 8 8 0 0 0 2.51-5.87v-28.8a8 8 0 0 0-4.47-7.15Z" class="cls-1"/><path d="M177 17.9a8 8 0 0 0-2.51-5.9 8.11 8.11 0 0 0-5.9-2.44h-14.05q11.6 6.21 22.41 13Z" class="cls-1"/><path fill="none" d="M67.06 54.82H45.88q10.48 3.81 21.18 8.5Z"/><path fill="#9780ff" d="M148.36 27.26c9.68 7.61 18.82 15.49 27.39 23.54a8 8 0 0 0 1.2-4.29V19.14q-5.22-4.86-10.75-9.6c-11.39-.65-29.86-1.65-45.56-2.26 9.3 6.13 18.57 12.79 27.72 19.98Zm-13.43 5.32A468.2 468.2 0 0 0 93.81 6.84l-6 .15a467.65 467.65 0 0 1 43.88 27.27q14.27 10 27.24 20.56h5.34q-13.92-11.41-29.34-22.24ZM68.8 7.73c-5.23.23-10.52.49-15.56.75a444.88 444.88 0 0 1 78.08 44l3.3 2.34h9.83q-7.68-5.82-15.74-11.51A457 457 0 0 0 68.8 7.73Zm-45.74 9.89v5.2c31.81 10.39 66.04 26.77 99.67 48.72q5.19 3.38 10.21 6.85v-6.22c-2.44-1.65-4.89-3.3-7.38-4.93-34.63-22.6-69.89-39.3-102.5-49.62Zm44 45.7v9.39a398.34 398.34 0 0 1 54.82 28.48q5.64 3.5 11.06 7.12v-8q-4.42-3.06-9-6a396.55 396.55 0 0 0-56.88-30.99Zm-35.65-8.5h14.47q-11.57-4.18-22.76-7.28a7.91 7.91 0 0 0 2.39 4.84 8 8 0 0 0 5.9 2.44Zm35.65 49.8v43.79a404.51 404.51 0 0 1 43 21.3q11.83 6.76 22.85 14.06a8.32 8.32 0 0 0 .08-1.12v-43.34q-9.61-6.24-19.87-12.11a404.81 404.81 0 0 0-46.06-22.58Zm0 52.48v25.55a8 8 0 0 0 1.54 4.83 9.23 9.23 0 0 0 6.56 4.07 208 208 0 0 0 24.84 1.68 208 208 0 0 0 24.84-1.68 9.13 9.13 0 0 0 5.08-2.36q-14.82-9.25-31.14-17.6c-10.59-5.39-21.19-10.22-31.72-14.49Z"/></svg>